<svg xmlns="http://www.w3.org/2000/svg" viewBox="0 0 100 100">
  <circle cx="50" cy="50" r="49" fill="#46283A"/>
  <circle cx="50" cy="50" r="45.5" fill="none" stroke="#BF9F63" stroke-width="0.8" opacity="0.85"/>
  <g fill="#E0C892">
    <path d="M50 60 C 43 51, 45 39, 50 36 C 55 39, 57 51, 50 60 Z"/>
    <path d="M50 60 C 43 51, 45 39, 50 36 C 55 39, 57 51, 50 60 Z" transform="rotate(-50 50 60)"/>
    <path d="M50 60 C 43 51, 45 39, 50 36 C 55 39, 57 51, 50 60 Z" transform="rotate(50 50 60)"/>
    <path d="M50 60 C 43 51, 45 39, 50 36 C 55 39, 57 51, 50 60 Z" transform="rotate(-25 50 60)"/>
    <path d="M50 60 C 43 51, 45 39, 50 36 C 55 39, 57 51, 50 60 Z" transform="rotate(25 50 60)"/>
  </g>
  <circle cx="50" cy="58" r="4.2" fill="#BE7669"/>
  <path d="M50 60 V74" stroke="#BF9F63" stroke-width="1.6" stroke-linecap="round"/>
  <path d="M50 67 C 45 66, 42 62, 41 59 M50 67 C 55 66, 58 62, 59 59" stroke="#BF9F63" stroke-width="1.4" fill="none" stroke-linecap="round"/>
</svg>
